<svg width="1600" height="900" viewBox="0 0 1600 900" fill="none" xmlns="http://www.w3.org/2000/svg">
  <rect width="1600" height="900" rx="36" fill="#071A2F"/>
  <rect width="1600" height="900" rx="36" fill="url(#paint0_linear)"/>
  <rect x="58" y="58" width="1484" height="784" rx="28" fill="#F7F4ED"/>
  <rect x="92" y="96" width="540" height="708" rx="26" fill="#FFFFFF"/>
  <rect x="668" y="96" width="840" height="708" rx="26" fill="#FFFFFF"/>
  <text x="122" y="166" fill="#0D223C" font-family="Arial, sans-serif" font-size="44" font-weight="700">Renewable Energy Classifier</text>
  <text x="122" y="214" fill="#567089" font-family="Arial, sans-serif" font-size="24">Interactive browser tool for transparent climate-based energy recommendations</text>
  <rect x="122" y="268" width="212" height="78" rx="18" fill="#E7F6EC"/>
  <rect x="350" y="268" width="212" height="78" rx="18" fill="#ECF3FA"/>
  <text x="152" y="316" fill="#12733A" font-family="Arial, sans-serif" font-size="28" font-weight="700">Solar</text>
  <text x="392" y="316" fill="#1F5F9A" font-family="Arial, sans-serif" font-size="28" font-weight="700">Wind</text>
  <text x="122" y="398" fill="#0D223C" font-family="Arial, sans-serif" font-size="26" font-weight="700">Climate Inputs</text>
  <g fill="#D9E7F2">
    <rect x="122" y="436" width="420" height="14" rx="7"/>
    <rect x="122" y="514" width="420" height="14" rx="7"/>
    <rect x="122" y="592" width="420" height="14" rx="7"/>
    <rect x="122" y="670" width="420" height="14" rx="7"/>
  </g>
  <g fill="#F2994A">
    <rect x="122" y="436" width="298" height="14" rx="7"/>
    <rect x="122" y="514" width="198" height="14" rx="7"/>
  </g>
  <g fill="#2D9CDB">
    <rect x="122" y="592" width="260" height="14" rx="7"/>
  </g>
  <g fill="#27AE60">
    <rect x="122" y="670" width="344" height="14" rx="7"/>
  </g>
  <text x="122" y="474" fill="#567089" font-family="Arial, sans-serif" font-size="20">Temperature</text>
  <text x="122" y="552" fill="#567089" font-family="Arial, sans-serif" font-size="20">Wind Speed</text>
  <text x="122" y="630" fill="#567089" font-family="Arial, sans-serif" font-size="20">Precipitation</text>
  <text x="122" y="708" fill="#567089" font-family="Arial, sans-serif" font-size="20">Elevation</text>
  <rect x="706" y="140" width="764" height="176" rx="24" fill="#0F2744"/>
  <text x="742" y="206" fill="#F7F4ED" font-family="Arial, sans-serif" font-size="24">Recommended Energy Source</text>
  <text x="742" y="270" fill="#F2C94C" font-family="Arial, sans-serif" font-size="62" font-weight="700">Solar</text>
  <text x="1208" y="270" fill="#A8C0D4" font-family="Arial, sans-serif" font-size="28">High confidence</text>
  <rect x="706" y="350" width="764" height="410" rx="24" fill="#F8FAFC"/>
  <text x="742" y="404" fill="#0D223C" font-family="Arial, sans-serif" font-size="30" font-weight="700">Score Breakdown</text>
  <g>
    <rect x="742" y="446" width="680" height="54" rx="16" fill="#FFF2E7"/>
    <rect x="742" y="528" width="540" height="54" rx="16" fill="#EAF5FD"/>
    <rect x="742" y="610" width="612" height="54" rx="16" fill="#E9F7EF"/>
  </g>
  <text x="770" y="481" fill="#B85D0B" font-family="Arial, sans-serif" font-size="24" font-weight="700">Solar: 9 / 9</text>
  <text x="770" y="563" fill="#1F5F9A" font-family="Arial, sans-serif" font-size="24" font-weight="700">Wind: 3 / 7</text>
  <text x="770" y="645" fill="#12733A" font-family="Arial, sans-serif" font-size="24" font-weight="700">Hydro: 0 / 8</text>
  <text x="742" y="722" fill="#567089" font-family="Arial, sans-serif" font-size="22">Replace this SVG with a real screenshot of the deployed app.</text>
  <defs>
    <linearGradient id="paint0_linear" x1="96" y1="92" x2="1518" y2="844" gradientUnits="userSpaceOnUse">
      <stop stop-color="#0D223C"/>
      <stop offset="1" stop-color="#12733A"/>
    </linearGradient>
  </defs>
</svg>
